<svg width="418" height="415" viewBox="0 0 418 415" fill="none" xmlns="http://www.w3.org/2000/svg">
<mask id="mask0" mask-type="alpha" maskUnits="userSpaceOnUse" x="0" y="0" width="418" height="415">
<path fill-rule="evenodd" clip-rule="evenodd" d="M155.564 361.563L208.597 414.597L261.63 361.563L417.193 206L364.16 152.967L246 271.127L246 -1.49662e-05L171 -2.15229e-05L171 270.934L53.0334 152.967L0.000378719 206L155.564 361.563Z" fill="#C4C4C4"/>
</mask>
<g mask="url(#mask0)">
<path fill-rule="evenodd" clip-rule="evenodd" d="M106.693 152.596C97.5807 152.596 90.1934 159.983 90.1934 169.096C90.1934 178.209 97.5807 185.596 106.693 185.596C115.806 185.596 123.193 178.209 123.193 169.096C123.193 159.983 115.806 152.596 106.693 152.596ZM106.693 150.596C96.4761 150.596 88.1934 158.879 88.1934 169.096C88.1934 179.313 96.4761 187.596 106.693 187.596C116.911 187.596 125.193 179.313 125.193 169.096C125.193 158.879 116.911 150.596 106.693 150.596Z" fill="#F4B223"/>
<path fill-rule="evenodd" clip-rule="evenodd" d="M106.693 159.596C101.447 159.596 97.1934 163.849 97.1934 169.096C97.1934 174.343 101.447 178.596 106.693 178.596C111.94 178.596 116.193 174.343 116.193 169.096C116.193 163.849 111.94 159.596 106.693 159.596ZM106.693 157.596C100.342 157.596 95.1934 162.745 95.1934 169.096C95.1934 175.447 100.342 180.596 106.693 180.596C113.045 180.596 118.193 175.447 118.193 169.096C118.193 162.745 113.045 157.596 106.693 157.596Z" fill="#F4B223"/>
<path fill-rule="evenodd" clip-rule="evenodd" d="M106.693 166.596C105.313 166.596 104.193 167.715 104.193 169.096C104.193 170.477 105.313 171.596 106.693 171.596C108.074 171.596 109.193 170.477 109.193 169.096C109.193 167.715 108.074 166.596 106.693 166.596ZM106.693 164.596C104.208 164.596 102.193 166.611 102.193 169.096C102.193 171.581 104.208 173.596 106.693 173.596C109.179 173.596 111.193 171.581 111.193 169.096C111.193 166.611 109.179 164.596 106.693 164.596Z" fill="#F4B223"/>
<path fill-rule="evenodd" clip-rule="evenodd" d="M106.693 145.596C93.7147 145.596 83.1934 156.117 83.1934 169.096C83.1934 182.075 93.7147 192.596 106.693 192.596C119.672 192.596 130.193 182.075 130.193 169.096C130.193 156.117 119.672 145.596 106.693 145.596ZM106.693 143.596C92.6101 143.596 81.1934 155.013 81.1934 169.096C81.1934 183.179 92.6101 194.596 106.693 194.596C120.777 194.596 132.193 183.179 132.193 169.096C132.193 155.013 120.777 143.596 106.693 143.596Z" fill="#F4B223"/>
<path fill-rule="evenodd" clip-rule="evenodd" d="M106.693 138.596C89.8487 138.596 76.1934 152.251 76.1934 169.096C76.1934 185.941 89.8487 199.596 106.693 199.596C123.538 199.596 137.193 185.941 137.193 169.096C137.193 152.251 123.538 138.596 106.693 138.596ZM106.693 136.596C88.7441 136.596 74.1934 151.147 74.1934 169.096C74.1934 187.045 88.7441 201.596 106.693 201.596C124.643 201.596 139.193 187.045 139.193 169.096C139.193 151.147 124.643 136.596 106.693 136.596Z" fill="#F4B223"/>
<path fill-rule="evenodd" clip-rule="evenodd" d="M106.693 131.596C85.9827 131.596 69.1934 148.385 69.1934 169.096C69.1934 189.807 85.9827 206.596 106.693 206.596C127.404 206.596 144.193 189.807 144.193 169.096C144.193 148.385 127.404 131.596 106.693 131.596ZM106.693 129.596C84.8781 129.596 67.1934 147.281 67.1934 169.096C67.1934 190.911 84.8781 208.596 106.693 208.596C128.509 208.596 146.193 190.911 146.193 169.096C146.193 147.281 128.509 129.596 106.693 129.596Z" fill="#F4B223"/>
<path fill-rule="evenodd" clip-rule="evenodd" d="M106.693 124.596C82.1167 124.596 62.1934 144.519 62.1934 169.096C62.1934 193.673 82.1167 213.596 106.693 213.596C131.27 213.596 151.193 193.673 151.193 169.096C151.193 144.519 131.27 124.596 106.693 124.596ZM106.693 122.596C81.0121 122.596 60.1934 143.415 60.1934 169.096C60.1934 194.777 81.0121 215.596 106.693 215.596C132.375 215.596 153.193 194.777 153.193 169.096C153.193 143.415 132.375 122.596 106.693 122.596Z" fill="#F4B223"/>
<path fill-rule="evenodd" clip-rule="evenodd" d="M106.693 117.596C78.2507 117.596 55.1934 140.653 55.1934 169.096C55.1934 197.539 78.2507 220.596 106.693 220.596C135.136 220.596 158.193 197.539 158.193 169.096C158.193 140.653 135.136 117.596 106.693 117.596ZM106.693 115.596C77.1461 115.596 53.1934 139.549 53.1934 169.096C53.1934 198.643 77.1461 222.596 106.693 222.596C136.241 222.596 160.193 198.643 160.193 169.096C160.193 139.549 136.241 115.596 106.693 115.596Z" fill="#F4B223"/>
<path fill-rule="evenodd" clip-rule="evenodd" d="M106.693 110.596C74.3847 110.596 48.1934 136.787 48.1934 169.096C48.1934 201.405 74.3847 227.596 106.693 227.596C139.002 227.596 165.193 201.405 165.193 169.096C165.193 136.787 139.002 110.596 106.693 110.596ZM106.693 108.596C73.2801 108.596 46.1934 135.683 46.1934 169.096C46.1934 202.509 73.2801 229.596 106.693 229.596C140.107 229.596 167.193 202.509 167.193 169.096C167.193 135.683 140.107 108.596 106.693 108.596Z" fill="#F4B223"/>
<path fill-rule="evenodd" clip-rule="evenodd" d="M106.693 103.596C70.5187 103.596 41.1934 132.921 41.1934 169.096C41.1934 205.271 70.5187 234.596 106.693 234.596C142.868 234.596 172.193 205.271 172.193 169.096C172.193 132.921 142.868 103.596 106.693 103.596ZM106.693 101.596C69.4142 101.596 39.1934 131.817 39.1934 169.096C39.1934 206.375 69.4141 236.596 106.693 236.596C143.973 236.596 174.193 206.375 174.193 169.096C174.193 131.817 143.973 101.596 106.693 101.596Z" fill="#F4B223"/>
<path fill-rule="evenodd" clip-rule="evenodd" d="M106.693 96.5959C66.6527 96.5959 34.1934 129.055 34.1934 169.096C34.1934 209.137 66.6527 241.596 106.693 241.596C146.734 241.596 179.193 209.137 179.193 169.096C179.193 129.055 146.734 96.5959 106.693 96.5959ZM106.693 94.5959C65.5482 94.5959 32.1934 127.951 32.1934 169.096C32.1934 210.241 65.5481 243.596 106.693 243.596C147.839 243.596 181.193 210.241 181.193 169.096C181.193 127.951 147.839 94.5959 106.693 94.5959Z" fill="#F4B223"/>
<path fill-rule="evenodd" clip-rule="evenodd" d="M106.693 89.5959C62.7867 89.5959 27.1934 125.189 27.1934 169.096C27.1934 213.003 62.7867 248.596 106.693 248.596C150.6 248.596 186.193 213.003 186.193 169.096C186.193 125.189 150.6 89.5959 106.693 89.5959ZM106.693 87.5959C61.6822 87.5959 25.1934 124.085 25.1934 169.096C25.1934 214.107 61.6822 250.596 106.693 250.596C151.705 250.596 188.193 214.107 188.193 169.096C188.193 124.085 151.705 87.5959 106.693 87.5959Z" fill="#F4B223"/>
<path fill-rule="evenodd" clip-rule="evenodd" d="M106.693 82.5959C58.9207 82.5959 20.1934 121.323 20.1934 169.096C20.1934 216.869 58.9207 255.596 106.693 255.596C154.466 255.596 193.193 216.869 193.193 169.096C193.193 121.323 154.466 82.5959 106.693 82.5959ZM106.693 80.5959C57.8162 80.5959 18.1934 120.219 18.1934 169.096C18.1934 217.973 57.8162 257.596 106.693 257.596C155.571 257.596 195.193 217.973 195.193 169.096C195.193 120.219 155.571 80.5959 106.693 80.5959Z" fill="#F4B223"/>
<path fill-rule="evenodd" clip-rule="evenodd" d="M106.693 75.5959C55.0547 75.5959 13.1934 117.457 13.1934 169.096C13.1934 220.735 55.0547 262.596 106.693 262.596C158.332 262.596 200.193 220.735 200.193 169.096C200.193 117.457 158.332 75.5959 106.693 75.5959ZM106.693 73.5959C53.9502 73.5959 11.1934 116.353 11.1934 169.096C11.1934 221.839 53.9502 264.596 106.693 264.596C159.437 264.596 202.193 221.839 202.193 169.096C202.193 116.353 159.437 73.5959 106.693 73.5959Z" fill="#F4B223"/>
<path fill-rule="evenodd" clip-rule="evenodd" d="M106.693 68.5959C51.1888 68.5959 6.19337 113.591 6.19337 169.096C6.19336 224.601 51.1887 269.596 106.693 269.596C162.198 269.596 207.193 224.601 207.193 169.096C207.193 113.591 162.198 68.5959 106.693 68.5959ZM106.693 66.5959C50.0842 66.5959 4.19337 112.487 4.19337 169.096C4.19336 225.705 50.0842 271.596 106.693 271.596C163.303 271.596 209.193 225.705 209.193 169.096C209.193 112.487 163.303 66.5959 106.693 66.5959Z" fill="#F4B223"/>
<path fill-rule="evenodd" clip-rule="evenodd" d="M106.693 61.5959C47.3228 61.5959 -0.806626 109.725 -0.806631 169.096C-0.806636 228.467 47.3228 276.596 106.693 276.596C166.064 276.596 214.193 228.467 214.193 169.096C214.193 109.725 166.064 61.5959 106.693 61.5959ZM106.693 59.5959C46.2182 59.5959 -2.80663 108.621 -2.80663 169.096C-2.80664 229.571 46.2182 278.596 106.693 278.596C167.169 278.596 216.193 229.571 216.193 169.096C216.193 108.621 167.169 59.5959 106.693 59.5959Z" fill="#F4B223"/>
<path fill-rule="evenodd" clip-rule="evenodd" d="M106.693 54.5959C43.4568 54.5959 -7.80662 105.859 -7.80663 169.096C-7.80664 232.333 43.4568 283.596 106.693 283.596C169.93 283.596 221.193 232.333 221.193 169.096C221.193 105.859 169.93 54.5959 106.693 54.5959ZM106.693 52.5959C42.3522 52.5959 -9.80662 104.755 -9.80663 169.096C-9.80664 233.437 42.3522 285.596 106.693 285.596C171.035 285.596 223.193 233.437 223.193 169.096C223.193 104.755 171.035 52.5959 106.693 52.5959Z" fill="#F4B223"/>
<path fill-rule="evenodd" clip-rule="evenodd" d="M106.693 47.5959C39.5908 47.5959 -14.8066 101.993 -14.8066 169.096C-14.8066 236.199 39.5908 290.596 106.693 290.596C173.796 290.596 228.193 236.199 228.193 169.096C228.193 101.993 173.796 47.5959 106.693 47.5959ZM106.693 45.5959C38.4862 45.5959 -16.8066 100.889 -16.8066 169.096C-16.8066 237.303 38.4862 292.596 106.693 292.596C174.901 292.596 230.193 237.303 230.193 169.096C230.193 100.889 174.901 45.5959 106.693 45.5959Z" fill="#F4B223"/>
<path fill-rule="evenodd" clip-rule="evenodd" d="M106.693 40.5959C35.7248 40.5959 -21.8066 98.1273 -21.8066 169.096C-21.8066 240.065 35.7248 297.596 106.693 297.596C177.662 297.596 235.193 240.065 235.193 169.096C235.193 98.1273 177.662 40.5959 106.693 40.5959ZM106.693 38.5959C34.6202 38.5959 -23.8066 97.0228 -23.8066 169.096C-23.8066 241.169 34.6202 299.596 106.693 299.596C178.767 299.596 237.193 241.169 237.193 169.096C237.193 97.0228 178.767 38.5959 106.693 38.5959Z" fill="#F4B223"/>
<path fill-rule="evenodd" clip-rule="evenodd" d="M106.693 33.5959C31.8588 33.5959 -28.8066 94.2613 -28.8066 169.096C-28.8066 243.931 31.8588 304.596 106.693 304.596C181.528 304.596 242.193 243.931 242.193 169.096C242.193 94.2614 181.528 33.5959 106.693 33.5959ZM106.693 31.5959C30.7542 31.5959 -30.8066 93.1568 -30.8066 169.096C-30.8066 245.035 30.7542 306.596 106.693 306.596C182.633 306.596 244.193 245.035 244.193 169.096C244.193 93.1568 182.633 31.5959 106.693 31.5959Z" fill="#F4B223"/>
<path fill-rule="evenodd" clip-rule="evenodd" d="M106.693 26.5959C27.9928 26.5959 -35.8066 90.3953 -35.8066 169.096C-35.8066 247.796 27.9928 311.596 106.693 311.596C185.394 311.596 249.193 247.797 249.193 169.096C249.193 90.3954 185.394 26.5959 106.693 26.5959ZM106.693 24.5959C26.8882 24.5959 -37.8066 89.2908 -37.8066 169.096C-37.8066 248.901 26.8882 313.596 106.693 313.596C186.499 313.596 251.193 248.901 251.193 169.096C251.193 89.2908 186.499 24.5959 106.693 24.5959Z" fill="#F4B223"/>
<path fill-rule="evenodd" clip-rule="evenodd" d="M106.693 19.5959C24.1268 19.5959 -42.8066 86.5293 -42.8066 169.096C-42.8066 251.662 24.1268 318.596 106.693 318.596C189.26 318.596 256.193 251.663 256.193 169.096C256.193 86.5294 189.26 19.5959 106.693 19.5959ZM106.693 17.5959C23.0222 17.5959 -44.8066 85.4248 -44.8066 169.096C-44.8066 252.767 23.0222 320.596 106.693 320.596C190.365 320.596 258.193 252.767 258.193 169.096C258.193 85.4248 190.365 17.5959 106.693 17.5959Z" fill="#F4B223"/>
<path fill-rule="evenodd" clip-rule="evenodd" d="M106.693 12.5959C20.2608 12.5959 -49.8066 82.6634 -49.8066 169.096C-49.8066 255.528 20.2608 325.596 106.693 325.596C193.126 325.596 263.193 255.529 263.193 169.096C263.193 82.6634 193.126 12.5959 106.693 12.5959ZM106.693 10.5959C19.1562 10.5959 -51.8066 81.5588 -51.8066 169.096C-51.8066 256.633 19.1562 327.596 106.693 327.596C194.23 327.596 265.193 256.633 265.193 169.096C265.193 81.5588 194.231 10.5959 106.693 10.5959Z" fill="#F4B223"/>
<path fill-rule="evenodd" clip-rule="evenodd" d="M106.693 5.59593C16.3948 5.59592 -56.8066 78.7974 -56.8066 169.096C-56.8066 259.394 16.3948 332.596 106.693 332.596C196.992 332.596 270.193 259.395 270.193 169.096C270.193 78.7974 196.992 5.59594 106.693 5.59593ZM106.693 3.59593C15.2903 3.59592 -58.8066 77.6928 -58.8066 169.096C-58.8066 260.499 15.2902 334.596 106.693 334.596C198.096 334.596 272.193 260.499 272.193 169.096C272.193 77.6928 198.097 3.59594 106.693 3.59593Z" fill="#F4B223"/>
<path fill-rule="evenodd" clip-rule="evenodd" d="M106.693 -1.40407C12.5288 -1.40408 -63.8066 74.9314 -63.8066 169.096C-63.8066 263.26 12.5288 339.596 106.693 339.596C200.858 339.596 277.193 263.26 277.193 169.096C277.193 74.9314 200.858 -1.40406 106.693 -1.40407ZM106.693 -3.40407C11.4243 -3.40408 -65.8066 73.8268 -65.8066 169.096C-65.8066 264.365 11.4242 341.596 106.693 341.596C201.962 341.596 279.193 264.365 279.193 169.096C279.193 73.8268 201.963 -3.40406 106.693 -3.40407Z" fill="#F4B223"/>
<path fill-rule="evenodd" clip-rule="evenodd" d="M106.693 -8.40407C8.66284 -8.40408 -70.8066 71.0654 -70.8066 169.096C-70.8066 267.126 8.66281 346.596 106.693 346.596C204.724 346.596 284.193 267.126 284.193 169.096C284.193 71.0654 204.724 -8.40406 106.693 -8.40407ZM106.693 -10.4041C7.55829 -10.4041 -72.8066 69.9608 -72.8066 169.096C-72.8066 268.231 7.55826 348.596 106.693 348.596C205.828 348.596 286.193 268.231 286.193 169.096C286.193 69.9608 205.828 -10.4041 106.693 -10.4041Z" fill="#F4B223"/>
<path fill-rule="evenodd" clip-rule="evenodd" d="M106.693 -15.4041C4.79685 -15.4041 -77.8066 67.1994 -77.8066 169.096C-77.8066 270.992 4.79681 353.596 106.693 353.596C208.59 353.596 291.193 270.992 291.193 169.096C291.193 67.1994 208.59 -15.4041 106.693 -15.4041ZM106.693 -17.4041C3.69229 -17.4041 -79.8066 66.0948 -79.8066 169.096C-79.8066 272.097 3.69226 355.596 106.693 355.596C209.694 355.596 293.193 272.097 293.193 169.096C293.193 66.0948 209.694 -17.4041 106.693 -17.4041Z" fill="#F4B223"/>
<path fill-rule="evenodd" clip-rule="evenodd" d="M106.693 -22.4041C0.93085 -22.4041 -84.8066 63.3334 -84.8066 169.096C-84.8066 274.858 0.930817 360.596 106.693 360.596C212.456 360.596 298.193 274.858 298.193 169.096C298.193 63.3334 212.456 -22.4041 106.693 -22.4041ZM106.693 -24.4041C-0.173703 -24.4041 -86.8066 62.2288 -86.8066 169.096C-86.8066 275.963 -0.173737 362.596 106.693 362.596C213.56 362.596 300.193 275.963 300.193 169.096C300.193 62.2289 213.56 -24.4041 106.693 -24.4041Z" fill="#F4B223"/>
<path fill-rule="evenodd" clip-rule="evenodd" d="M106.693 -29.4041C-2.93512 -29.4041 -91.8066 59.4674 -91.8066 169.096C-91.8066 278.724 -2.93515 367.596 106.693 367.596C216.322 367.596 305.193 278.724 305.193 169.096C305.193 59.4674 216.322 -29.4041 106.693 -29.4041ZM106.693 -31.4041C-4.0397 -31.4041 -93.8066 58.3628 -93.8066 169.096C-93.8066 279.829 -4.03973 369.596 106.693 369.596C217.426 369.596 307.193 279.829 307.193 169.096C307.193 58.3629 217.426 -31.4041 106.693 -31.4041Z" fill="#F4B223"/>
<path fill-rule="evenodd" clip-rule="evenodd" d="M106.693 -36.4041C-6.80111 -36.4041 -98.8066 55.6014 -98.8066 169.096C-98.8066 282.59 -6.80115 374.596 106.693 374.596C220.188 374.596 312.193 282.59 312.193 169.096C312.193 55.6014 220.188 -36.4041 106.693 -36.4041ZM106.693 -38.4041C-7.90569 -38.4041 -100.807 54.4968 -100.807 169.096C-100.807 283.695 -7.90573 376.596 106.693 376.596C221.292 376.596 314.193 283.695 314.193 169.096C314.193 54.4969 221.292 -38.4041 106.693 -38.4041Z" fill="#F4B223"/>
<path fill-rule="evenodd" clip-rule="evenodd" d="M106.693 -43.4041C-10.6671 -43.4041 -105.807 51.7354 -105.807 169.096C-105.807 286.456 -10.6671 381.596 106.693 381.596C224.054 381.596 319.193 286.456 319.193 169.096C319.193 51.7354 224.054 -43.4041 106.693 -43.4041ZM106.693 -45.4041C-11.7717 -45.4041 -107.807 50.6308 -107.807 169.096C-107.807 287.561 -11.7717 383.596 106.693 383.596C225.158 383.596 321.193 287.561 321.193 169.096C321.193 50.6309 225.158 -45.4041 106.693 -45.4041Z" fill="#F4B223"/>
<path fill-rule="evenodd" clip-rule="evenodd" d="M106.693 -50.4041C-14.5331 -50.4041 -112.807 47.8694 -112.807 169.096C-112.807 290.322 -14.5331 388.596 106.693 388.596C227.92 388.596 326.193 290.322 326.193 169.096C326.193 47.8694 227.92 -50.4041 106.693 -50.4041ZM106.693 -52.4041C-15.6377 -52.4041 -114.807 46.7648 -114.807 169.096C-114.807 291.427 -15.6377 390.596 106.693 390.596C229.024 390.596 328.193 291.427 328.193 169.096C328.193 46.7649 229.024 -52.4041 106.693 -52.4041Z" fill="#F4B223"/>
<path fill-rule="evenodd" clip-rule="evenodd" d="M106.693 -57.4041C-18.3991 -57.4041 -119.807 44.0034 -119.807 169.096C-119.807 294.188 -18.3991 395.596 106.693 395.596C231.786 395.596 333.193 294.188 333.193 169.096C333.193 44.0034 231.786 -57.4041 106.693 -57.4041ZM106.693 -59.4041C-19.5037 -59.4041 -121.807 42.8989 -121.807 169.096C-121.807 295.293 -19.5037 397.596 106.693 397.596C232.89 397.596 335.193 295.293 335.193 169.096C335.193 42.8989 232.89 -59.4041 106.693 -59.4041Z" fill="#F4B223"/>
<path fill-rule="evenodd" clip-rule="evenodd" d="M106.693 -64.4041C-22.2651 -64.4041 -126.807 40.1374 -126.807 169.096C-126.807 298.054 -22.2651 402.596 106.693 402.596C235.652 402.596 340.193 298.054 340.193 169.096C340.193 40.1375 235.652 -64.4041 106.693 -64.4041ZM106.693 -66.4041C-23.3696 -66.4041 -128.807 39.0329 -128.807 169.096C-128.807 299.159 -23.3697 404.596 106.693 404.596C236.756 404.596 342.193 299.159 342.193 169.096C342.193 39.0329 236.756 -66.4041 106.693 -66.4041Z" fill="#F4B223"/>
<path fill-rule="evenodd" clip-rule="evenodd" d="M106.693 -71.4041C-26.1311 -71.4041 -133.807 36.2714 -133.807 169.096C-133.807 301.92 -26.1311 409.596 106.693 409.596C239.518 409.596 347.193 301.92 347.193 169.096C347.193 36.2715 239.518 -71.4041 106.693 -71.4041ZM106.693 -73.4041C-27.2356 -73.4041 -135.807 35.1669 -135.807 169.096C-135.807 303.025 -27.2357 411.596 106.693 411.596C240.622 411.596 349.193 303.025 349.193 169.096C349.193 35.1669 240.622 -73.4041 106.693 -73.4041Z" fill="#F4B223"/>
<path fill-rule="evenodd" clip-rule="evenodd" d="M106.693 -78.4041C-29.9971 -78.4041 -140.807 32.4054 -140.807 169.096C-140.807 305.786 -29.9971 416.596 106.693 416.596C243.384 416.596 354.193 305.786 354.193 169.096C354.193 32.4055 243.384 -78.4041 106.693 -78.4041ZM106.693 -80.4041C-31.1016 -80.4041 -142.807 31.3009 -142.807 169.096C-142.807 306.891 -31.1017 418.596 106.693 418.596C244.488 418.596 356.193 306.891 356.193 169.096C356.193 31.3009 244.488 -80.4041 106.693 -80.4041Z" fill="#F4B223"/>
<path fill-rule="evenodd" clip-rule="evenodd" d="M106.693 -85.4041C-33.8631 -85.4041 -147.807 28.5394 -147.807 169.096C-147.807 309.652 -33.8631 423.596 106.693 423.596C247.25 423.596 361.193 309.652 361.193 169.096C361.193 28.5395 247.25 -85.4041 106.693 -85.4041ZM106.693 -87.4041C-34.9676 -87.4041 -149.807 27.4349 -149.807 169.096C-149.807 310.757 -34.9677 425.596 106.693 425.596C248.354 425.596 363.193 310.757 363.193 169.096C363.193 27.4349 248.354 -87.4041 106.693 -87.4041Z" fill="#F4B223"/>
<path fill-rule="evenodd" clip-rule="evenodd" d="M106.693 -92.4041C-37.729 -92.4041 -154.807 24.6734 -154.807 169.096C-154.807 313.518 -37.7291 430.596 106.693 430.596C251.116 430.596 368.193 313.518 368.193 169.096C368.193 24.6735 251.116 -92.4041 106.693 -92.4041ZM106.693 -94.4041C-38.8336 -94.4041 -156.807 23.5689 -156.807 169.096C-156.807 314.623 -38.8337 432.596 106.693 432.596C252.22 432.596 370.193 314.623 370.193 169.096C370.193 23.5689 252.22 -94.4041 106.693 -94.4041Z" fill="#F4B223"/>
<path fill-rule="evenodd" clip-rule="evenodd" d="M106.693 -99.4041C-41.595 -99.4041 -161.807 20.8074 -161.807 169.096C-161.807 317.384 -41.5951 437.596 106.693 437.596C254.982 437.596 375.193 317.384 375.193 169.096C375.193 20.8075 254.982 -99.4041 106.693 -99.4041ZM106.693 -101.404C-42.6996 -101.404 -163.807 19.7029 -163.807 169.096C-163.807 318.489 -42.6997 439.596 106.693 439.596C256.086 439.596 377.193 318.489 377.193 169.096C377.193 19.7029 256.086 -101.404 106.693 -101.404Z" fill="#F4B223"/>
<path fill-rule="evenodd" clip-rule="evenodd" d="M106.693 -106.404C-45.4611 -106.404 -168.807 16.9414 -168.807 169.096C-168.807 321.25 -45.4611 444.596 106.693 444.596C258.848 444.596 382.193 321.25 382.193 169.096C382.193 16.9415 258.848 -106.404 106.693 -106.404ZM106.693 -108.404C-46.5656 -108.404 -170.807 15.8369 -170.807 169.096C-170.807 322.355 -46.5657 446.596 106.693 446.596C259.952 446.596 384.193 322.355 384.193 169.096C384.193 15.8369 259.952 -108.404 106.693 -108.404Z" fill="#F4B223"/>
<path fill-rule="evenodd" clip-rule="evenodd" d="M106.693 -113.404C-49.3271 -113.404 -175.807 13.0755 -175.807 169.096C-175.807 325.116 -49.3271 451.596 106.693 451.596C262.714 451.596 389.193 325.116 389.193 169.096C389.193 13.0755 262.714 -113.404 106.693 -113.404ZM106.693 -115.404C-50.4316 -115.404 -177.807 11.9709 -177.807 169.096C-177.807 326.221 -50.4317 453.596 106.693 453.596C263.818 453.596 391.193 326.221 391.193 169.096C391.193 11.9709 263.818 -115.404 106.693 -115.404Z" fill="#F4B223"/>
<path fill-rule="evenodd" clip-rule="evenodd" d="M106.693 -120.404C-53.193 -120.404 -182.807 9.20945 -182.807 169.096C-182.807 328.982 -53.1931 458.596 106.693 458.596C266.58 458.596 396.193 328.982 396.193 169.096C396.193 9.2095 266.58 -120.404 106.693 -120.404ZM106.693 -122.404C-54.2976 -122.404 -184.807 8.1049 -184.807 169.096C-184.807 330.087 -54.2977 460.596 106.693 460.596C267.684 460.596 398.193 330.087 398.193 169.096C398.193 8.10495 267.684 -122.404 106.693 -122.404Z" fill="#F4B223"/>
<path fill-rule="evenodd" clip-rule="evenodd" d="M106.693 -127.404C-57.059 -127.404 -189.807 5.34345 -189.807 169.096C-189.807 332.848 -57.0591 465.596 106.693 465.596C270.446 465.596 403.193 332.848 403.193 169.096C403.193 5.34351 270.446 -127.404 106.693 -127.404ZM106.693 -129.404C-58.1636 -129.404 -191.807 4.2389 -191.807 169.096C-191.807 333.953 -58.1637 467.596 106.693 467.596C271.55 467.596 405.193 333.953 405.193 169.096C405.193 4.23895 271.55 -129.404 106.693 -129.404Z" fill="#F4B223"/>
<path fill-rule="evenodd" clip-rule="evenodd" d="M106.693 -134.404C-60.925 -134.404 -196.807 1.47749 -196.807 169.096C-196.807 336.714 -60.9251 472.596 106.693 472.596C274.312 472.596 410.193 336.714 410.193 169.096C410.193 1.47754 274.312 -134.404 106.693 -134.404ZM106.693 -136.404C-62.0296 -136.404 -198.807 0.372902 -198.807 169.096C-198.807 337.819 -62.0296 474.596 106.693 474.596C275.416 474.596 412.193 337.819 412.193 169.096C412.193 0.372955 275.416 -136.404 106.693 -136.404Z" fill="#F4B223"/>
<path fill-rule="evenodd" clip-rule="evenodd" d="M106.693 -141.404C-64.791 -141.404 -203.807 -2.38851 -203.807 169.096C-203.807 340.58 -64.7911 479.596 106.693 479.596C278.178 479.596 417.193 340.58 417.193 169.096C417.193 -2.38846 278.178 -141.404 106.693 -141.404ZM106.693 -143.404C-65.8956 -143.404 -205.807 -3.4931 -205.807 169.096C-205.807 341.685 -65.8956 481.596 106.693 481.596C279.282 481.596 419.193 341.685 419.193 169.096C419.193 -3.49304 279.282 -143.404 106.693 -143.404Z" fill="#F4B223"/>
<path fill-rule="evenodd" clip-rule="evenodd" d="M106.693 -148.404C-68.657 -148.404 -210.807 -6.25451 -210.807 169.096C-210.807 344.446 -68.6571 486.596 106.693 486.596C282.044 486.596 424.193 344.446 424.193 169.096C424.193 -6.25446 282.044 -148.404 106.693 -148.404ZM106.693 -150.404C-69.7616 -150.404 -212.807 -7.3591 -212.807 169.096C-212.807 345.551 -69.7616 488.596 106.693 488.596C283.148 488.596 426.193 345.551 426.193 169.096C426.193 -7.35904 283.148 -150.404 106.693 -150.404Z" fill="#F4B223"/>
<path fill-rule="evenodd" clip-rule="evenodd" d="M106.693 -155.404C-72.523 -155.404 -217.807 -10.1205 -217.807 169.096C-217.807 348.312 -72.5231 493.596 106.693 493.596C285.91 493.596 431.193 348.312 431.193 169.096C431.193 -10.1205 285.91 -155.404 106.693 -155.404ZM106.693 -157.404C-73.6276 -157.404 -219.807 -11.2251 -219.807 169.096C-219.807 349.417 -73.6276 495.596 106.693 495.596C287.014 495.596 433.193 349.417 433.193 169.096C433.193 -11.225 287.014 -157.404 106.693 -157.404Z" fill="#F4B223"/>
<path fill-rule="evenodd" clip-rule="evenodd" d="M106.693 -162.404C-76.389 -162.404 -224.807 -13.9865 -224.807 169.096C-224.807 352.178 -76.3891 500.596 106.693 500.596C289.776 500.596 438.193 352.178 438.193 169.096C438.193 -13.9865 289.776 -162.404 106.693 -162.404ZM106.693 -164.404C-77.4935 -164.404 -226.807 -15.0911 -226.807 169.096C-226.807 353.283 -77.4936 502.596 106.693 502.596C290.88 502.596 440.193 353.283 440.193 169.096C440.193 -15.091 290.88 -164.404 106.693 -164.404Z" fill="#F4B223"/>
<path fill-rule="evenodd" clip-rule="evenodd" d="M106.693 -169.404C-80.255 -169.404 -231.807 -17.8525 -231.807 169.096C-231.807 356.044 -80.255 507.596 106.693 507.596C293.642 507.596 445.193 356.044 445.193 169.096C445.193 -17.8524 293.642 -169.404 106.693 -169.404ZM106.693 -171.404C-81.3596 -171.404 -233.807 -18.9571 -233.807 169.096C-233.807 357.149 -81.3596 509.596 106.693 509.596C294.746 509.596 447.193 357.149 447.193 169.096C447.193 -18.957 294.746 -171.404 106.693 -171.404Z" fill="#F4B223"/>
<path fill-rule="evenodd" clip-rule="evenodd" d="M106.693 -176.404C-84.121 -176.404 -238.807 -21.7185 -238.807 169.096C-238.807 359.91 -84.121 514.596 106.693 514.596C297.508 514.596 452.193 359.91 452.193 169.096C452.193 -21.7184 297.508 -176.404 106.693 -176.404ZM106.693 -178.404C-85.2255 -178.404 -240.807 -22.8231 -240.807 169.096C-240.807 361.015 -85.2256 516.596 106.693 516.596C298.612 516.596 454.193 361.015 454.193 169.096C454.193 -22.823 298.612 -178.404 106.693 -178.404Z" fill="#F4B223"/>
<path fill-rule="evenodd" clip-rule="evenodd" d="M106.693 -183.404C-87.987 -183.404 -245.807 -25.5845 -245.807 169.096C-245.807 363.776 -87.987 521.596 106.693 521.596C301.374 521.596 459.193 363.776 459.193 169.096C459.193 -25.5844 301.374 -183.404 106.693 -183.404ZM106.693 -185.404C-89.0916 -185.404 -247.807 -26.6891 -247.807 169.096C-247.807 364.881 -89.0916 523.596 106.693 523.596C302.478 523.596 461.193 364.881 461.193 169.096C461.193 -26.689 302.478 -185.404 106.693 -185.404Z" fill="#F4B223"/>
</g>
</svg>
