<svg width="1214" height="593" viewBox="0 0 1214 593" fill="none" xmlns="http://www.w3.org/2000/svg"><path d="M752.547 920.322c92.154 0 166.86-74.706 166.86-166.86 0-92.154-74.706-166.86-166.86-166.86-92.154 0-166.86 74.706-166.86 166.86 0 92.154 74.706 166.86 166.86 166.86z" stroke="#DA5915" stroke-width="2.5"/><path d="M752.547 936.12c100.878 0 182.656-81.777 182.656-182.655S853.425 570.81 752.547 570.81s-182.656 81.777-182.656 182.655c.001 100.878 81.778 182.655 182.656 182.655z" stroke="#DA5915" stroke-width="2.5"/><path d="M752.545 951.917c109.601 0 198.451-88.85 198.451-198.451 0-109.602-88.85-198.451-198.451-198.451-109.602 0-198.451 88.849-198.451 198.451 0 109.601 88.849 198.451 198.451 198.451z" stroke="#DA5915" stroke-width="2.5"/><path d="M752.547 967.712c118.325 0 214.246-95.921 214.246-214.246s-95.921-214.247-214.246-214.247S538.3 635.141 538.3 753.466c0 118.325 95.922 214.246 214.247 214.246z" stroke="#DA5915" stroke-width="2.5"/><circle r="230.042" transform="matrix(0 1 1 0 752.543 753.463)" stroke="#DA5915" stroke-width="2.5"/><path d="M752.546 999.303c135.773 0 245.838-110.066 245.838-245.838S888.319 507.628 752.546 507.628c-135.772 0-245.837 110.065-245.837 245.837 0 135.773 110.065 245.838 245.837 245.838z" stroke="#DA5915" stroke-width="2.5"/><path d="M752.546 1015.1c144.496 0 261.634-117.14 261.634-261.636 0-144.497-117.138-261.634-261.634-261.634S490.913 608.967 490.913 753.464c0 144.496 117.137 261.636 261.633 261.636z" stroke="#DA5915" stroke-width="2.5"/><path d="M752.544 1030.9c153.22 0 277.426-124.214 277.426-277.434 0-153.22-124.206-277.429-277.426-277.429-153.22 0-277.429 124.21-277.429 277.429 0 153.22 124.209 277.434 277.429 277.434z" stroke="#DA5915" stroke-width="2.5"/><path d="M752.546 1046.69c161.944 0 293.224-131.281 293.224-293.225 0-161.943-131.28-293.224-293.224-293.224-161.943 0-293.224 131.281-293.224 293.225 0 161.943 131.281 293.224 293.224 293.224z" stroke="#DA5915" stroke-width="2.5"/><path d="M752.546 1062.49c170.667 0 309.024-138.355 309.024-309.022s-138.357-309.02-309.024-309.02-309.02 138.353-309.02 309.02c0 170.667 138.353 309.022 309.02 309.022z" stroke="#DA5915" stroke-width="2.5"/><circle r="324.816" transform="matrix(0 1 1 0 752.548 753.468)" stroke="#DA5915" stroke-width="2.5"/><path d="M752.544 1094.08c188.114 0 340.606-152.5 340.606-340.614 0-188.115-152.492-340.612-340.607-340.612-188.114 0-340.611 152.497-340.611 340.612 0 188.114 152.497 340.614 340.612 340.614z" stroke="#DA5915" stroke-width="2.5"/><path d="M752.545 1109.87c196.838 0 356.405-159.566 356.405-356.404S949.383 397.06 752.545 397.06c-196.838 0-356.406 159.569-356.406 356.406 0 196.838 159.568 356.404 356.406 356.404z" stroke="#DA5915" stroke-width="2.5"/><path d="M752.543 1125.67c205.562 0 372.207-166.642 372.207-372.204 0-205.561-166.645-372.202-372.207-372.202-205.561 0-372.202 166.641-372.202 372.203 0 205.561 166.641 372.203 372.202 372.203z" stroke="#DA5915" stroke-width="2.5"/><circle r="387.998" transform="matrix(0 1 1 0 752.545 753.466)" stroke="#DA5915" stroke-width="2.5"/><circle r="403.792" transform="matrix(0 1 1 0 752.546 753.462)" stroke="#DA5915" stroke-width="2.5"/><circle r="419.588" transform="matrix(0 1 1 0 752.544 753.463)" stroke="#DA5915" stroke-width="2.5"/><circle r="435.383" transform="matrix(0 1 1 0 752.543 753.464)" stroke="#DA5915" stroke-width="2.5"/><circle r="451.179" transform="matrix(0 1 1 0 752.545 753.465)" stroke="#DA5915" stroke-width="2.5"/><path d="M752.543 1220.44c257.907 0 466.977-209.07 466.977-466.976 0-257.903-209.07-466.974-466.977-466.974-257.903 0-466.974 209.072-466.974 466.974 0 257.906 209.071 466.976 466.974 466.976z" stroke="#DA5915" stroke-width="2.5"/><circle r="482.769" transform="matrix(0 1 1 0 752.544 753.466)" stroke="#DA5915" stroke-width="2.5"/><circle r="498.564" transform="matrix(0 1 1 0 752.542 753.467)" stroke="#DA5915" stroke-width="2.5"/><path d="M752.541 1267.82c284.069 0 514.359-230.29 514.359-514.359 0-284.073-230.29-514.359-514.359-514.359-284.073 0-514.359 230.287-514.359 514.36 0 284.068 230.286 514.358 514.359 514.358z" stroke="#DA5915" stroke-width="2.5"/><circle r="530.155" transform="matrix(0 1 1 0 752.543 753.462)" stroke="#DA5915" stroke-width="2.5"/><circle r="545.951" transform="matrix(0 1 1 0 752.545 753.465)" stroke="#DA5915" stroke-width="2.5"/><circle r="561.746" transform="matrix(0 1 1 0 752.543 753.464)" stroke="#DA5915" stroke-width="2.5"/><circle r="577.542" transform="matrix(0 1 1 0 752.541 753.462)" stroke="#DA5915" stroke-width="2.5"/><circle r="593.337" transform="matrix(0 1 1 0 752.542 753.463)" stroke="#DA5915" stroke-width="2.5"/><circle r="609.133" transform="matrix(0 1 1 0 752.542 753.462)" stroke="#DA5915" stroke-width="2.5"/><circle r="624.928" transform="matrix(0 1 1 0 752.546 753.465)" stroke="#DA5915" stroke-width="2.5"/><circle r="640.724" transform="matrix(0 1 1 0 752.542 753.463)" stroke="#DA5915" stroke-width="2.5"/><circle r="656.519" transform="matrix(0 1 1 0 752.545 753.464)" stroke="#DA5915" stroke-width="2.5"/><path d="M752.543 1425.78c371.307 0 672.317-301.01 672.317-672.317 0-371.309-301.01-672.314-672.317-672.314-371.309 0-672.314 301.005-672.314 672.314 0 371.307 301.005 672.317 672.314 672.317z" stroke="#DA5915" stroke-width="2.5"/><circle r="688.11" transform="matrix(0 1 1 0 752.541 753.464)" stroke="#DA5915" stroke-width="2.5"/><circle r="703.906" transform="matrix(0 1 1 0 752.543 753.459)" stroke="#DA5915" stroke-width="2.5"/><circle r="719.701" transform="matrix(0 1 1 0 752.54 753.46)" stroke="#DA5915" stroke-width="2.5"/><circle r="735.496" transform="matrix(0 1 1 0 752.544 753.465)" stroke="#DA5915" stroke-width="2.5"/><circle r="751.292" transform="matrix(0 1 1 0 752.542 753.462)" stroke="#DA5915" stroke-width="2.5"/></svg>