<svg width="62" height="670" viewBox="0 0 62 670" fill="none" xmlns="http://www.w3.org/2000/svg"><mask id="a" maskUnits="userSpaceOnUse" x="0" y="0" width="62" height="670"><path d="M31 0v670" stroke="#F4B223" stroke-width="62"/></mask><g mask="url(#a)" stroke="#E36F1E" stroke-width="2.5"><circle cx="131.93" cy="354.544" r="71.736"/><circle cx="131.93" cy="354.543" r="82.724"/><circle cx="131.929" cy="354.545" r="93.711"/><circle cx="131.93" cy="354.545" r="104.698"/><circle cx="131.928" cy="354.544" r="115.685"/><circle cx="131.93" cy="354.544" r="126.672"/><circle cx="131.931" cy="354.544" r="137.659"/><circle cx="131.931" cy="354.544" r="148.647"/><circle cx="131.929" cy="354.543" r="159.634"/><circle cx="131.93" cy="354.544" r="170.621"/><circle cx="131.929" cy="354.545" r="181.608"/><circle cx="131.931" cy="354.544" r="192.595"/><circle cx="131.93" cy="354.544" r="203.583"/><circle cx="131.933" cy="354.544" r="214.57"/><circle cx="131.932" cy="354.544" r="225.557"/><circle cx="131.931" cy="354.544" r="236.544"/><circle cx="131.932" cy="354.544" r="247.531"/><circle cx="131.931" cy="354.544" r="258.518"/><circle cx="131.93" cy="354.544" r="269.506"/><circle cx="131.928" cy="354.543" r="280.492"/><circle cx="131.929" cy="354.544" r="291.479"/><circle cx="131.93" cy="354.543" r="302.466"/><circle cx="131.93" cy="354.543" r="313.453"/><circle cx="131.93" cy="354.543" r="324.44"/><circle cx="131.931" cy="354.542" r="335.427"/><circle cx="131.932" cy="354.542" r="346.414"/><circle cx="131.928" cy="354.542" r="357.401"/><circle cx="131.928" cy="354.543" r="368.388"/><circle cx="131.93" cy="354.543" r="379.375"/><circle cx="131.929" cy="354.541" r="390.363"/><circle cx="131.929" cy="354.542" r="401.35"/><circle cx="131.929" cy="354.541" r="412.337"/><circle cx="131.928" cy="354.542" r="423.324"/><circle cx="131.929" cy="354.542" r="434.311"/><circle cx="131.929" cy="354.541" r="445.298"/><circle cx="131.931" cy="354.542" r="456.285"/><circle cx="131.929" cy="354.543" r="467.272"/><circle cx="131.93" cy="354.543" r="478.26"/><circle cx="131.925" cy="354.542" r="489.247"/><circle cx="131.927" cy="354.541" r="500.234"/><circle cx="131.931" cy="354.542" r="511.221"/><circle cx="131.928" cy="354.542" r="522.208"/></g></svg>