<svg width="41" height="40" viewBox="0 0 41 40" fill="none" xmlns="http://www.w3.org/2000/svg">
<g style="mix-blend-mode:multiply">
<rect width="41" height="40" rx="8" fill="black" fill-opacity="0.12"/>
</g>
<path d="M21.1509 14.0757L22.6352 17.0586C22.7446 17.2747 22.9533 17.4247 23.194 17.4581L26.5281 17.9437C26.7228 17.971 26.8995 18.0737 27.0188 18.2305C27.1369 18.3852 27.1875 18.5813 27.1589 18.7741C27.1355 18.9342 27.0602 19.0822 26.9448 19.1956L24.529 21.5375C24.3523 21.7009 24.2722 21.943 24.3149 22.1798L24.9097 25.4722C24.9731 25.8697 24.7097 26.2446 24.3149 26.3199C24.1522 26.3459 23.9855 26.3186 23.8388 26.2439L20.8648 24.6944C20.6441 24.583 20.3834 24.583 20.1627 24.6944L17.1887 26.2439C16.8233 26.438 16.3705 26.3059 16.1672 25.9457C16.0918 25.8023 16.0652 25.6389 16.0898 25.4795L16.6846 22.1865C16.7273 21.9504 16.6466 21.7069 16.4706 21.5435L14.0547 19.203C13.7673 18.9255 13.7587 18.4686 14.0354 18.1811C14.0414 18.1751 14.0481 18.1684 14.0547 18.1618C14.1694 18.0451 14.3201 17.971 14.4828 17.9517L17.8169 17.4654C18.0569 17.4314 18.2656 17.2827 18.3756 17.0652L19.8066 14.0757C19.934 13.8196 20.198 13.6602 20.4848 13.6668H20.5741C20.8228 13.6968 21.0396 13.8509 21.1509 14.0757Z" fill="#FFCE00"/>
</svg>
